<?xml version="1.0" encoding="UTF-8" standalone="no"?>
<!-- Created with Inkscape (http://www.inkscape.org/) -->
<svg
   xmlns:dc="http://purl.org/dc/elements/1.1/"
   xmlns:cc="http://creativecommons.org/ns#"
   xmlns:rdf="http://www.w3.org/1999/02/22-rdf-syntax-ns#"
   xmlns:svg="http://www.w3.org/2000/svg"
   xmlns="http://www.w3.org/2000/svg"
   xmlns:sodipodi="http://sodipodi.sourceforge.net/DTD/sodipodi-0.dtd"
   xmlns:inkscape="http://www.inkscape.org/namespaces/inkscape"
   id="svg1897"
   sodipodi:version="0.32"
   inkscape:version="0.46dev+devel"
   width="687.83307"
   height="527.97424"
   sodipodi:docbase="/home/peterm/afbeeldingen/svg"
   sodipodi:docname="PeterM_Sad_cat.svg"
   inkscape:output_extension="org.inkscape.output.svg.inkscape"
   version="1.0">
  <metadata
     id="metadata1902">
    <rdf:RDF>
      <cc:Work
         rdf:about="">
        <dc:format>image/svg+xml</dc:format>
        <dc:type
           rdf:resource="http://purl.org/dc/dcmitype/StillImage" />
      </cc:Work>
    </rdf:RDF>
  </metadata>
  <defs
     id="defs1900" />
  <sodipodi:namedview
     inkscape:window-height="732"
     inkscape:window-width="1280"
     inkscape:pageshadow="2"
     inkscape:pageopacity="0.0"
     guidetolerance="10.0"
     gridtolerance="10.0"
     objecttolerance="10.0"
     borderopacity="1.0"
     bordercolor="#666666"
     pagecolor="#ffffff"
     id="base"
     inkscape:zoom="1.0091583"
     inkscape:cx="460.11826"
     inkscape:cy="633.80089"
     inkscape:window-x="0"
     inkscape:window-y="34"
     inkscape:current-layer="svg1897"
     showgrid="false" />
  <g
     id="g2869"
     transform="translate(-20.17578,-29.028355)">
    <path
       sodipodi:nodetypes="cccccccccccccccccccccccccccccccccccccccc"
       id="path2875"
       d="M 607.99789,29.99529 L 599.64493,48.176719 C 599.49972,48.168869 599.35239,48.163599 599.20504,48.157649 L 589.10101,29.486781 L 590.90428,48.634539 C 552.61902,53.653899 474.43013,96.088729 456.29449,123.06922 C 456.29449,123.06922 439.65002,115.35568 416.60774,109.83045 L 428.93303,102.54444 L 382.46013,107.16088 L 412.06654,89.394923 L 368.33691,103.85301 L 384.23809,79.788874 L 354.79569,100.99726 L 329.82775,78.63038 L 339.02484,101.71799 L 309.57967,95.598744 L 325.47168,110.6698 C 304.61115,115.65476 289.55277,121.77204 289.55277,121.77204 C 269.83029,95.216959 196.23808,55.312259 158.07967,49.264049 L 159.69168,32.089952 L 150.12319,48.481929 C 149.70537,48.472949 149.28355,48.459249 148.87999,48.462859 L 141.51462,30.496391 L 141.01915,49.702799 C 140.61399,49.855159 140.22122,50.035839 139.85245,50.217859 L 123.81752,37.399628 L 133.92335,55.463759 C 133.64233,55.837369 133.37031,56.225889 133.10093,56.627399 L 112.14877,53.264889 L 129.48608,63.609229 C 116.60488,95.811309 124.38053,173.00504 144.80613,226.06072 C 135.07479,289.00272 196.87937,345.68487 230.49125,493.8882 C 324.75135,515.06395 512.14283,494.65124 512.14283,494.65124 C 545.35044,340.16595 590.27766,266.02636 577.47773,230.81065 C 610.12282,200.67213 627.52061,101.37857 616.26555,63.628299 L 635.96237,54.865857 L 613.87478,55.673589 L 628.47862,38.299906 L 607.71617,50.065249 L 607.99789,29.99529 z"
       style="fill:#1a1a1a;fill-opacity:1;stroke:#1a1a1a;stroke-width:0.91685146;stroke-linecap:round;stroke-linejoin:round;stroke-miterlimit:4;stroke-dasharray:none;stroke-opacity:1" />
    <g
       transform="translate(27.7459,41.61884)"
       id="g1956">
      <path
         sodipodi:type="arc"
         style="fill:#4d4d4d;fill-opacity:1"
         id="path2950"
         sodipodi:cx="95.128784"
         sodipodi:cy="557.89069"
         sodipodi:rx="41.618843"
         sodipodi:ry="40.627918"
         d="M 136.74763,557.89069 A 41.618843,40.627918 0 1 1 53.509941,557.89069 A 41.618843,40.627918 0 1 1 136.74763,557.89069 z"
         transform="matrix(1.425217,0,0,2.147773,149.3283,-970.1098)"
         inkscape:export-filename="/home/peterm/afbeeldingen/svg/foxhead2.png"
         inkscape:export-xdpi="90"
         inkscape:export-ydpi="90" />
      <path
         sodipodi:type="arc"
         style="fill:#ffffff;fill-opacity:1"
         id="path2952"
         sodipodi:cx="95.128784"
         sodipodi:cy="557.89069"
         sodipodi:rx="41.618843"
         sodipodi:ry="40.627918"
         d="M 136.74763,557.89069 A 41.618843,40.627918 0 1 1 53.509941,557.89069 A 41.618843,40.627918 0 1 1 136.74763,557.89069 z"
         transform="matrix(1.205861,0,0,1.817208,171.1684,-790.0093)"
         inkscape:export-filename="/home/peterm/afbeeldingen/svg/foxhead2.png"
         inkscape:export-xdpi="90"
         inkscape:export-ydpi="90" />
    </g>
    <path
       inkscape:export-ydpi="90"
       inkscape:export-xdpi="90"
       inkscape:export-filename="/home/peterm/afbeeldingen/svg/foxhead2.png"
       transform="matrix(2.603612,0,0,2.596791,111.8081,-1011.178)"
       d="M 94.622404,496.98291 A 17.17668,16.573988 0 1 1 60.269045,496.98291 A 17.17668,16.573988 0 1 1 94.622404,496.98291 z"
       sodipodi:ry="16.573988"
       sodipodi:rx="17.17668"
       sodipodi:cy="496.98291"
       sodipodi:cx="77.445724"
       id="path2954"
       style="fill:#008000;fill-opacity:1"
       sodipodi:type="arc" />
    <path
       inkscape:export-ydpi="90"
       inkscape:export-xdpi="90"
       inkscape:export-filename="/home/peterm/afbeeldingen/svg/foxhead2.png"
       transform="matrix(1.222839,0,0,1.305707,202.9484,-603.8314)"
       d="M 107.01989,675.81073 A 16.845722,15.854797 0 1 1 73.328442,675.81073 A 16.845722,15.854797 0 1 1 107.01989,675.81073 z"
       sodipodi:ry="15.854797"
       sodipodi:rx="16.845722"
       sodipodi:cy="675.81073"
       sodipodi:cx="90.174164"
       id="path2956"
       style="fill:#000000;fill-opacity:1"
       sodipodi:type="arc" />
    <path
       transform="matrix(0.612037,0,0,0.610433,654.294,185.4689)"
       d="M -348.80553,430.06137 A 117.92006,61.43734 0 1 1 -584.64565,430.06137 A 117.92006,61.43734 0 1 1 -348.80553,430.06137 z"
       sodipodi:ry="61.43734"
       sodipodi:rx="117.92006"
       sodipodi:cy="430.06137"
       sodipodi:cx="-466.72559"
       id="path2930"
       style="fill:#808080;fill-opacity:1;stroke:#000000;stroke-width:1.5;stroke-linecap:round;stroke-linejoin:round;stroke-miterlimit:4;stroke-dasharray:none;stroke-opacity:1"
       sodipodi:type="arc" />
    <path
       transform="matrix(0.387729,0,0,0.386713,550.277,283.4969)"
       d="M -348.80553,430.06137 A 117.92006,61.43734 0 1 1 -584.64565,430.06137 A 117.92006,61.43734 0 1 1 -348.80553,430.06137 z"
       sodipodi:ry="61.43734"
       sodipodi:rx="117.92006"
       sodipodi:cy="430.06137"
       sodipodi:cx="-466.72559"
       id="path3852"
       style="fill:#e9afaf;fill-opacity:1;stroke:#e9afaf;stroke-width:1.5;stroke-linecap:round;stroke-linejoin:round;stroke-miterlimit:4;stroke-dasharray:none;stroke-opacity:1"
       sodipodi:type="arc" />
    <g
       transform="translate(145.1539,43.43697)"
       id="g1960">
      <path
         sodipodi:type="arc"
         style="fill:#4d4d4d;fill-opacity:1"
         id="path1962"
         sodipodi:cx="95.128784"
         sodipodi:cy="557.89069"
         sodipodi:rx="41.618843"
         sodipodi:ry="40.627918"
         d="M 136.74763,557.89069 A 41.618843,40.627918 0 1 1 53.509941,557.89069 A 41.618843,40.627918 0 1 1 136.74763,557.89069 z"
         transform="matrix(1.425217,0,0,2.147773,149.3283,-970.1098)"
         inkscape:export-filename="/home/peterm/afbeeldingen/svg/foxhead2.png"
         inkscape:export-xdpi="90"
         inkscape:export-ydpi="90" />
      <path
         sodipodi:type="arc"
         style="fill:#ffffff;fill-opacity:1"
         id="path1964"
         sodipodi:cx="95.128784"
         sodipodi:cy="557.89069"
         sodipodi:rx="41.618843"
         sodipodi:ry="40.627918"
         d="M 136.74763,557.89069 A 41.618843,40.627918 0 1 1 53.509941,557.89069 A 41.618843,40.627918 0 1 1 136.74763,557.89069 z"
         transform="matrix(1.205861,0,0,1.817208,171.1684,-790.0093)"
         inkscape:export-filename="/home/peterm/afbeeldingen/svg/foxhead2.png"
         inkscape:export-xdpi="90"
         inkscape:export-ydpi="90" />
    </g>
    <path
       inkscape:export-ydpi="90"
       inkscape:export-xdpi="90"
       inkscape:export-filename="/home/peterm/afbeeldingen/svg/foxhead2.png"
       transform="matrix(2.603612,0,0,2.596791,226.4409,-1011.12)"
       d="M 94.622404,496.98291 A 17.17668,16.573988 0 1 1 60.269045,496.98291 A 17.17668,16.573988 0 1 1 94.622404,496.98291 z"
       sodipodi:ry="16.573988"
       sodipodi:rx="17.17668"
       sodipodi:cy="496.98291"
       sodipodi:cx="77.445724"
       id="path1966"
       style="fill:#008000;fill-opacity:1"
       sodipodi:type="arc" />
    <path
       id="path2925"
       d="M 461.90746,311.88242 C 425.30824,311.88242 392.25647,322.0997 368.74402,338.49348 C 345.29032,322.45577 312.60489,312.49286 276.46038,312.49285 C 205.15262,312.49285 147.28241,351.2548 147.28241,399.00265 C 147.28241,446.7505 205.15262,485.49337 276.46038,485.49338 C 313.0596,485.49338 346.11137,475.29517 369.62382,458.9014 C 393.07753,474.93911 425.76295,484.88296 461.90746,484.88295 C 533.21522,484.88295 591.08543,446.14005 591.08543,398.39222 C 591.08543,350.64437 533.21522,311.88241 461.90746,311.88242 z"
       style="fill:#4d4d4d;fill-opacity:1;stroke:#4d4d4d;stroke-width:0.91685146;stroke-linecap:round;stroke-linejoin:round;stroke-miterlimit:4;stroke-dasharray:none;stroke-opacity:1" />
    <path
       inkscape:export-ydpi="90"
       inkscape:export-xdpi="90"
       inkscape:export-filename="/home/peterm/afbeeldingen/svg/foxhead2.png"
       transform="matrix(1.222839,0,0,1.305707,317.5812,-603.7733)"
       d="M 107.01989,675.81073 A 16.845722,15.854797 0 1 1 73.328442,675.81073 A 16.845722,15.854797 0 1 1 107.01989,675.81073 z"
       sodipodi:ry="15.854797"
       sodipodi:rx="16.845722"
       sodipodi:cy="675.81073"
       sodipodi:cx="90.174164"
       id="path1968"
       style="fill:#000000;fill-opacity:1"
       sodipodi:type="arc" />
    <path
       sodipodi:nodetypes="csss"
       id="path2870"
       d="M 337.30578,321.52668 C 342.35942,312.84455 392.69192,312.97419 397.70476,321.68225 C 402.7176,330.39031 377.44934,373.80097 367.38284,373.77504 C 357.31635,373.74911 332.25211,330.20882 337.30578,321.52668 z"
       style="fill:#e9afaf;fill-opacity:1;stroke:#e9afaf;stroke-width:0.35129339;stroke-linecap:round;stroke-linejoin:round;stroke-miterlimit:4;stroke-opacity:1" />
    <path
       sodipodi:nodetypes="csss"
       id="path2903"
       d="M 165.40114,195.17739 C 150.19068,188.70938 140.24543,106.84868 153.46684,96.944559 C 166.68825,87.040439 242.74056,119.38051 244.72961,135.75265 C 246.71865,152.12479 180.61161,201.64542 165.40114,195.17739 z"
       style="fill:#808080;fill-opacity:1;stroke:#808080;stroke-width:0.57702923;stroke-linecap:round;stroke-linejoin:round;stroke-miterlimit:4;stroke-opacity:1" />
    <path
       sodipodi:nodetypes="csss"
       id="path2905"
       d="M 572.82511,190.36037 C 588.03557,183.89237 597.98082,102.03167 584.75941,92.127549 C 571.538,82.223429 495.48569,114.5635 493.49665,130.93564 C 491.50759,147.30778 557.61465,196.8284 572.82511,190.36037 z"
       style="fill:#808080;fill-opacity:1;stroke:#808080;stroke-width:0.57702923;stroke-linecap:round;stroke-linejoin:round;stroke-miterlimit:4;stroke-opacity:1" />
    <g
       transform="translate(447.898,132.7839)"
       id="g1976">
      <path
         style="fill:#4d4d4d;fill-opacity:1"
         d="M -202.16253,123.42039 C -213.14264,109.04393 -199.15657,75.699234 -174.19044,56.730984 C -149.22424,37.762724 -113.27798,33.170934 -102.29793,47.547404 C -91.317795,61.923854 -128.75841,66.415134 -153.72454,85.383384 C -178.69074,104.35163 -191.18247,137.79684 -202.16253,123.42039 z"
         id="path2921"
         sodipodi:nodetypes="cssss"
         inkscape:export-filename="/home/peterm/afbeeldingen/svg/foxhead2.png"
         inkscape:export-xdpi="90"
         inkscape:export-ydpi="90" />
      <path
         style="fill:#808080;fill-opacity:1"
         d="M -186.35393,95.636204 C -192.98223,83.557524 -178.69888,59.993204 -157.78724,48.507564 C -136.87561,37.021924 -109.33562,37.614954 -102.70732,49.693634 C -96.079015,61.772294 -124.7309,60.934914 -145.64254,72.420544 C -166.55418,83.906184 -179.72563,107.71486 -186.35393,95.636204 z"
         id="path2923"
         sodipodi:nodetypes="cssss"
         inkscape:export-filename="/home/peterm/afbeeldingen/svg/foxhead2.png"
         inkscape:export-xdpi="90"
         inkscape:export-ydpi="90" />
    </g>
    <path
       sodipodi:nodetypes="csss"
       id="path2943"
       d="M 194.13766,173.80672 C 185.65253,170.19856 180.1046,124.53273 187.48013,119.00774 C 194.85567,113.48274 237.28129,131.52359 238.39088,140.65675 C 239.50047,149.78991 202.62279,177.4149 194.13766,173.80672 z"
       style="fill:#4d4d4d;fill-opacity:1;stroke:#4d4d4d;stroke-width:0.32189459;stroke-linecap:round;stroke-linejoin:round;stroke-miterlimit:4;stroke-opacity:1" />
    <path
       sodipodi:nodetypes="csss"
       id="path2945"
       d="M 543.53268,168.36269 C 552.01781,164.75453 557.56574,119.0887 550.19021,113.5637 C 542.81467,108.03871 500.38904,126.07956 499.27945,135.21272 C 498.16987,144.34588 535.04755,171.97087 543.53268,168.36269 z"
       style="fill:#4d4d4d;fill-opacity:1;stroke:#4d4d4d;stroke-width:0.32189459;stroke-linecap:round;stroke-linejoin:round;stroke-miterlimit:4;stroke-opacity:1" />
    <path
       inkscape:export-ydpi="90"
       inkscape:export-xdpi="90"
       inkscape:export-filename="/home/peterm/afbeeldingen/svg/foxhead2.png"
       sodipodi:nodetypes="cssss"
       id="path1902"
       d="M 305.34316,342.32875 C 298.60327,322.9852 258.36297,315.30015 224.8625,326.95871 C 191.36208,338.61725 164.60146,369.61935 171.34134,388.96297 C 178.08119,408.30648 205.67885,375.83326 239.1793,364.17472 C 272.67974,352.51618 312.083,361.6723 305.34316,342.32875 z"
       style="fill:#808080;fill-opacity:1" />
    <path
       id="path3840"
       d="M 291.95013,363.9965 C 65.199456,268.86576 22.580062,331.18806 22.580062,331.18806"
       style="fill:none;fill-opacity:0.75;fill-rule:evenodd;stroke:#1a1a1a;stroke-width:4.80856419;stroke-linecap:round;stroke-linejoin:round;stroke-miterlimit:4;stroke-dasharray:none;stroke-opacity:1" />
    <path
       id="path3842"
       d="M 314.40677,396.87532 C 77.444289,346.96237 41.734585,417.25476 41.734585,417.25476"
       style="fill:none;fill-opacity:0.75;fill-rule:evenodd;stroke:#1a1a1a;stroke-width:4.84189558;stroke-linecap:round;stroke-linejoin:round;stroke-miterlimit:4;stroke-dasharray:none;stroke-opacity:1" />
    <path
       id="path3844"
       d="M 285.96767,425.37473 C 102.31118,470.62998 87.969012,551.25187 87.969012,551.25187"
       style="fill:none;fill-opacity:0.75;fill-rule:evenodd;stroke:#1a1a1a;stroke-width:4.2427001;stroke-linecap:round;stroke-linejoin:round;stroke-miterlimit:4;stroke-dasharray:none;stroke-opacity:1" />
    <path
       inkscape:export-ydpi="90"
       inkscape:export-xdpi="90"
       inkscape:export-filename="/home/peterm/afbeeldingen/svg/foxhead2.png"
       transform="matrix(0.650561,0,0,0.694648,359.6437,-205.76)"
       d="M 107.01989,675.81073 A 16.845722,15.854797 0 1 1 73.328442,675.81073 A 16.845722,15.854797 0 1 1 107.01989,675.81073 z"
       sodipodi:ry="15.854797"
       sodipodi:rx="16.845722"
       sodipodi:cy="675.81073"
       sodipodi:cx="90.174164"
       id="path1970"
       style="fill:#ffffff;fill-opacity:1"
       sodipodi:type="arc" />
    <path
       inkscape:export-ydpi="90"
       inkscape:export-xdpi="90"
       inkscape:export-filename="/home/peterm/afbeeldingen/svg/foxhead2.png"
       sodipodi:nodetypes="cssss"
       id="path1904"
       d="M 426.1416,341.2866 C 432.88149,321.94305 473.12179,314.258 506.62226,325.91656 C 540.12268,337.5751 566.8833,368.5772 560.14342,387.92082 C 553.40357,407.26433 525.80591,374.79111 492.30546,363.13257 C 458.80502,351.47403 419.40176,360.63015 426.1416,341.2866 z"
       style="fill:#808080;fill-opacity:1" />
    <path
       id="path3846"
       d="M 436.23447,367.62585 C 662.98515,272.49512 705.60456,334.81742 705.60456,334.81742"
       style="fill:none;fill-opacity:0.75;fill-rule:evenodd;stroke:#1a1a1a;stroke-width:4.80856419;stroke-linecap:round;stroke-linejoin:round;stroke-miterlimit:4;stroke-dasharray:none;stroke-opacity:1" />
    <path
       id="path3848"
       d="M 413.7778,400.50468 C 650.74031,350.59173 686.45002,420.88412 686.45002,420.88412"
       style="fill:none;fill-opacity:0.75;fill-rule:evenodd;stroke:#1a1a1a;stroke-width:4.84189558;stroke-linecap:round;stroke-linejoin:round;stroke-miterlimit:4;stroke-dasharray:none;stroke-opacity:1" />
    <path
       id="path3850"
       d="M 442.21694,429.00408 C 625.87339,474.25934 640.21561,554.88122 640.21561,554.88122"
       style="fill:none;fill-opacity:0.75;fill-rule:evenodd;stroke:#1a1a1a;stroke-width:4.2427001;stroke-linecap:round;stroke-linejoin:round;stroke-miterlimit:4;stroke-dasharray:none;stroke-opacity:1" />
    <path
       inkscape:export-ydpi="90"
       inkscape:export-xdpi="90"
       inkscape:export-filename="/home/peterm/afbeeldingen/svg/foxhead2.png"
       transform="matrix(0.650561,0,0,0.694648,245.0109,-205.8181)"
       d="M 107.01989,675.81073 A 16.845722,15.854797 0 1 1 73.328442,675.81073 A 16.845722,15.854797 0 1 1 107.01989,675.81073 z"
       sodipodi:ry="15.854797"
       sodipodi:rx="16.845722"
       sodipodi:cy="675.81073"
       sodipodi:cx="90.174164"
       id="path1934"
       style="fill:#ffffff;fill-opacity:1"
       sodipodi:type="arc" />
    <g
       transform="translate(1000.834,85.21954)"
       id="g1972">
      <path
         style="fill:#4d4d4d;fill-opacity:1"
         d="M -500.20048,169.82144 C -489.22038,155.44497 -503.20647,122.10027 -528.17262,103.13202 C -553.13879,84.163757 -589.08503,79.571967 -600.06513,93.948447 C -611.04521,108.3249 -573.60463,112.81618 -548.63847,131.78442 C -523.67232,150.75267 -511.18056,184.19789 -500.20048,169.82144 z"
         id="path2958"
         sodipodi:nodetypes="cssss"
         inkscape:export-filename="/home/peterm/afbeeldingen/svg/foxhead2.png"
         inkscape:export-xdpi="90"
         inkscape:export-ydpi="90" />
      <path
         style="fill:#808080;fill-opacity:1"
         d="M -516.00911,142.03725 C -509.38081,129.95856 -523.66413,106.39425 -544.57579,94.908597 C -565.48743,83.422957 -593.0274,84.015987 -599.65573,96.094677 C -606.28402,108.17333 -577.63213,107.33595 -556.7205,118.82159 C -535.80885,130.30722 -522.63742,154.1159 -516.00911,142.03725 z"
         id="path2960"
         sodipodi:nodetypes="cssss"
         inkscape:export-filename="/home/peterm/afbeeldingen/svg/foxhead2.png"
         inkscape:export-xdpi="90"
         inkscape:export-ydpi="90" />
    </g>
  </g>
</svg>
